# Made using Asset Forge (www.assetforge.io) version 1.2.1 

mtllib Robin romskip.model.mtl 

v 0.5 0.9 -0.5
v -0.5 0.9 -0.5
v 0.5 0.9 -0.8
v -0.5 0.9 -0.8
v 0.5 0.775 -0.5
v -0.5 0.775 -0.5
v -0.5 0.775 -0.8
v -0.315 0.538209 -1.5
v 0.315 0.538209 -1.5
v -0.315 0.6764179 -1.5
v 0.315 0.6764179 -1.5
v -0.4075 0.6911567 -1.15
v -0.4075 0.5941045 -1.15
v 0.5 0.775 -0.8
v 0.4075 0.6911567 -1.15
v 0.4075 0.5941045 -1.15
v 0.315 0.4 -1.5
v 0.5 0.4 -0.8
v -0.315 0.4 -1.5
v -0.5 0.4 -0.8
v 0.5 0.4965613 -0.5
v 0.4034387 0.4 -0.5
v -0.5 0.4965613 -0.5
v -0.4034387 0.4 -0.5
vn 0 1 0
vn 0 0.9947325 -0.1025057
vn 0 0.9787596 -0.2050113
vn 0 0 1
vn -0.9916667 0 -0.1288301
vn -0.9879859 0 -0.1545438
vn -1 0 0
vn 0 0 -1
vn -0.9668056 0 -0.2555127
vn -0.9668056 0 -0.2555128
vn -0.9668056 0 -0.2555129
vn -0.9668056 0 -0.2555129
vn 0 0.9525891 -0.3042597
vn 0.9812305 0 -0.1928386
vn 0.9916667 0 -0.1288301
vn 1 0 0
vn 0.9668056 0 -0.2555129
vn 0.9668056 0 -0.2555127
vn 0.9668056 0 -0.2555128
vn 0.9668056 0 -0.2555129
vn 0.9916667 0 -0.1288301
vn -0.9851645 0 -0.1716126
vn 0.6894745 -0.6894747 0.2219218
vn 0 -1 0
vn -0.6894745 -0.6894747 0.2219218
vt -0.5 -0.5
vt 0.5 -0.5
vt -0.5 -0.8
vt 0.5 -0.8
vt 0.5 0.775
vt -0.5 0.775
vt 0.5 0.9
vt -0.5 0.9
vt -0.8 0.775
vt -0.8 0.9
vt 0.315 0.538209
vt -0.315 0.538209
vt 0.315 0.6764179
vt -0.315 0.6764179
vt -1.5 0.538209
vt -1.15 0.6911567
vt -1.15 0.5941045
vt -1.5 0.6764179
vt -0.315 -1.5
vt 0.315 -1.5
vt 0.8 0.9
vt 0.8 0.775
vt 1.5 0.6764179
vt 1.5 0.538209
vt 1.15 0.6911567
vt 1.15 0.5941045
vt 1.5 0.4
vt 0.8 0.4
vt 0.315 0.4
vt -0.315 0.4
vt -1.5 0.4
vt -0.8 0.4
vt 0.5 0.4965613
vt -0.5 0.5
vt -0.5 0.8
vt -0.4034387 0.5
vt -0.5 0.4965613
vt -0.315 1.5
vt 0.4034387 0.5
vt 0.315 1.5
vt 0.5 0.8
vt 0.4034387 0.4
vt -0.4034387 0.4
vt 0.5 0.5

usemtl engine
usemap engine
f 3/3/2 2/2/1 1/1/1
f 2/2/1 3/3/2 4/4/3
f 1/7/4 6/6/4 5/5/4
f 6/6/4 1/7/4 2/8/4
f 6/6/7 4/10/6 7/9/5
f 4/10/6 6/6/7 2/8/7
f 10/13/8 9/12/8 8/11/8
f 9/12/8 10/13/8 11/14/8
f 13/17/11 12/16/10 8/15/9
f 4/10/6 8/15/9 12/16/10
f 8/15/9 4/10/6 10/18/12
f 4/10/6 12/16/10 7/9/5
f 11/19/13 4/4/3 3/3/2
f 4/4/3 11/19/13 10/20/13
f 1/7/16 14/22/15 3/21/14
f 14/22/15 1/7/16 5/5/16
f 3/21/14 9/24/18 11/23/17
f 9/24/18 3/21/14 15/25/19
f 15/25/19 3/21/14 14/22/15
f 16/26/20 9/24/18 15/25/19

usemtl _defaultMat (Instance)
usemap _defaultMat (Instance)
f 14/22/15 16/26/20 15/25/19
f 16/26/20 17/27/20 9/24/18
f 17/27/20 16/26/20 18/28/21
f 18/28/21 16/26/20 14/22/15
f 8/11/8 17/30/8 19/29/8
f 17/30/8 8/11/8 9/12/8
f 19/31/11 13/17/11 8/15/9
f 13/17/11 19/31/11 20/32/22
f 13/17/11 7/9/5 12/16/10
f 7/9/5 13/17/11 20/32/22
f 5/5/16 18/28/21 14/22/15
f 18/28/21 5/5/16 21/33/16
f 22/36/23 18/35/23 21/34/23
f 23/37/7 7/9/5 20/32/22
f 7/9/5 23/37/7 6/6/7
f 22/36/24 17/38/24 18/35/24
f 17/38/24 22/36/24 24/39/24
f 17/38/24 24/39/24 19/40/24
f 19/40/24 24/39/24 20/41/24
f 21/33/4 24/43/4 22/42/4
f 24/43/4 21/33/4 23/37/4
f 23/37/4 21/33/4 6/6/4
f 6/6/4 21/33/4 5/5/4
f 23/44/25 20/41/25 24/39/25
v -0.5 0.7 -0.5
v -0.5 0.6 -0.5
v -0.5 0.7 0
v -0.5 0.6 0
v -1.352076 0.6 -0.1730874
v -1.352076 0.7 -0.1730874
v -1.352076 0.6 0.3022037
v -1.352076 0.7 0.3269126
v -1.5 0.6542287 -0.1163342
v -1.5 0.8050001 -0.1163342
v -1.5 0.6542287 0.5
v -1.5 0.8050001 0.5
v -1.352076 0.8050001 -0.1730874
v -1.352076 0.8050001 0.5
v -1.352076 0.7 0.5
v -1.421744 0.6 -0.1463583
v -0.5 0.6 0.5
v -1.421744 0.6 0.5
v -0.5 0.7 0.5
vn -0.3582067 0 -0.9336424
vn -0.3582066 0 -0.9336424
vn -0.3582067 0 -0.9336423
vn -0.3582065 0 -0.9336424
vn -0.3582067 0 -0.9336423
vn -0.5695769 -0.8219381 0
vt 0.5 0.7
vt 0.5 0.6
vt 0 0.7
vt 0 0.6
vt 1.352076 0.6
vt 1.352076 0.7
vt 0.5 0
vt 1.352076 -0.3022037
vt 1.352076 0.1730874
vt 1.352076 -0.1730874
vt 1.352076 0.3269126
vt -0.1163342 0.6542287
vt -0.1163342 0.8050001
vt 0.5 0.6542287
vt 0.5 0.8050001
vt 1.352076 0.5
vt 1.5 -0.1163342
vt 1.5 0.5
vt 0.1730874 0.8050001
vt 0.1730874 0.7
vt -0.5 0.8050001
vt -0.3269126 0.7
vt -0.5 0.7
vt 1.421744 0.6
vt 1.5 0.6542287
vt 1.5 0.8050001
vt 1.352076 0.8050001
vt -0.5 0.6
vt -1.421744 0.6
vt -1.5 0.6542287
vt -1.352076 0.7
vt -1.5 0.8050001
vt -1.352076 0.8050001
vt 1.421744 -0.5
vt 1.421744 0.1463583
vt 1.5 -0.5
vt 1.5 0.1163342

usemtl engine
usemap engine
f 27/47/16 26/46/16 25/45/16
f 26/46/16 27/47/16 28/48/16
f 29/49/27 25/45/26 26/46/26
f 25/45/26 29/49/27 30/50/28
f 31/52/24 26/44/24 28/51/24
f 26/44/24 31/52/24 29/53/24
f 30/54/1 27/51/1 25/2/1
f 27/51/1 30/54/1 32/55/1

usemtl _defaultMat (Instance)
usemap _defaultMat (Instance)
f 35/58/7 34/57/7 33/56/7
f 34/57/7 35/58/7 36/59/7
f 34/61/1 38/60/1 37/54/1
f 38/60/1 34/61/1 36/62/1
f 38/65/16 30/64/16 37/63/16
f 30/64/16 38/65/16 32/66/16
f 32/66/16 38/65/16 39/67/16
f 33/69/27 29/49/27 40/68/29
f 29/49/27 33/69/27 30/50/28
f 30/50/28 33/69/27 34/70/30
f 30/50/28 34/70/30 37/71/28
f 43/67/4 42/73/4 41/72/4
f 42/73/4 43/67/4 35/74/4
f 35/74/4 43/67/4 39/75/4
f 35/74/4 39/75/4 36/76/4
f 36/76/4 39/75/4 38/77/4
f 35/80/31 40/79/31 42/78/31
f 40/79/31 35/80/31 33/81/31
f 42/78/24 28/51/24 41/2/24
f 28/51/24 42/78/24 31/52/24
f 29/53/24 42/78/24 40/79/24
f 31/52/24 42/78/24 29/53/24
f 43/67/16 28/48/16 27/47/16
f 28/48/16 43/67/16 41/72/16
f 32/55/1 43/44/1 27/51/1
f 43/44/1 32/55/1 39/60/1
v 0.5 0.7 -0.5
v 0.5 0.6 -0.5
v 0.5 0.7 0
v 0.5 0.6 0
v 1.352076 0.6 -0.1730874
v 1.352076 0.7 -0.1730874
v 1.352076 0.6 0.3022037
v 1.352076 0.7 0.3269126
v 1.5 0.6542287 -0.1163342
v 1.5 0.8050001 -0.1163342
v 1.5 0.6542287 0.5
v 1.5 0.8050001 0.5
v 1.352076 0.8050001 -0.1730874
v 1.352076 0.8050001 0.5
v 1.352076 0.7 0.5
v 1.421744 0.6 -0.1463583
v 0.5 0.6 0.5
v 1.421744 0.6 0.5
v 0.5 0.7 0.5
vn 0.3582067 0 -0.9336424
vn 0.3582066 0 -0.9336424
vn 0.3582067 0 -0.9336423
vn 0.3582065 0 -0.9336424
vn 0.3582067 0 -0.9336423
vn 0.5695769 -0.8219381 0
vt -0.5 0
vt -1.352076 0.3022037
vt -1.352076 -0.1730874
vt -1.352076 0.1730874
vt -1.352076 -0.3269126
vt -1.352076 -0.5
vt -1.5 0.1163342
vt -1.5 -0.5
vt -1.421744 0.5
vt -1.421744 -0.1463583
vt -1.5 0.5
vt -1.5 -0.1163342

usemtl engine
usemap engine
f 44/45/7 45/46/7 46/47/7
f 47/48/7 46/47/7 45/46/7
f 45/46/32 44/45/32 48/49/33
f 49/50/34 48/49/33 44/45/32
f 47/82/24 45/1/24 50/83/24
f 48/84/24 50/83/24 45/1/24
f 44/34/1 46/82/1 49/85/1
f 51/86/1 49/85/1 46/82/1

usemtl _defaultMat (Instance)
usemap _defaultMat (Instance)
f 52/56/16 53/57/16 54/58/16
f 55/59/16 54/58/16 53/57/16
f 56/85/1 57/87/1 53/88/1
f 55/89/1 53/88/1 57/87/1
f 56/63/7 49/64/7 57/65/7
f 51/66/7 57/65/7 49/64/7
f 58/67/7 57/65/7 51/66/7
f 59/68/35 48/49/33 52/69/33
f 49/50/34 52/69/33 48/49/33
f 53/70/36 52/69/33 49/50/34
f 56/71/34 53/70/36 49/50/34
f 60/72/4 61/73/4 62/67/4
f 54/74/4 62/67/4 61/73/4
f 58/75/4 62/67/4 54/74/4
f 55/76/4 58/75/4 54/74/4
f 57/77/4 58/75/4 55/76/4
f 61/90/37 59/91/37 54/92/37
f 52/93/37 54/92/37 59/91/37
f 60/34/24 47/82/24 61/90/24
f 50/83/24 61/90/24 47/82/24
f 59/91/24 61/90/24 48/84/24
f 48/84/24 61/90/24 50/83/24
f 46/47/7 47/48/7 62/67/7
f 60/72/7 62/67/7 47/48/7
f 46/82/1 62/1/1 51/86/1
f 58/87/1 51/86/1 62/1/1
v 0.5 0.8034387 -0.5
v 0.5 0.4 -0.5
v 0.5 0.8034387 0.5
v 0.5 0.4 0.5
v -0.5 0.8034387 -0.5
v -0.5 0.8034387 0.5
v -0.5 0.4 -0.5
v -0.5 0.4 0.5
v -0.4034387 0.9 -0.5
v -0.4034387 0.9 0.5
v 0.4034387 0.9 -0.5
v 0.4034387 0.9 0.5
vn -0.7071066 0.7071069 0
vn 0.7071066 0.7071069 0
vt 0.5 0.8034387
vt 0.5 0.4
vt -0.5 0.8034387
vt -0.5 0.4
vt 0.4034387 -0.5
vt 0.4034387 0.9
vt -0.4034387 0.9
vt -0.4034387 -0.5

usemtl engine
usemap engine
f 65/96/16 64/95/16 63/94/16
f 64/95/16 65/96/16 66/97/16
f 69/97/7 68/94/7 67/96/7
f 68/94/7 69/97/7 70/95/7
f 65/94/4 70/97/4 66/95/4
f 70/97/4 65/94/4 68/96/4

usemtl _defaultMat (Instance)
usemap _defaultMat (Instance)
f 68/44/38 71/98/38 67/2/38
f 71/98/38 68/44/38 72/39/38
f 67/94/8 64/97/8 69/95/8
f 64/97/8 67/94/8 63/96/8
f 63/96/8 67/94/8 71/99/8
f 63/96/8 71/99/8 73/100/8
f 74/99/4 68/96/4 65/94/4
f 68/96/4 74/99/4 72/100/4
f 74/36/39 63/1/39 73/101/39
f 63/1/39 74/36/39 65/34/39
f 71/98/1 74/36/1 73/101/1
f 74/36/1 71/98/1 72/39/1
f 70/2/24 64/34/24 66/1/24
f 64/34/24 70/2/24 69/44/24
v 0.5 0.65 1.5
v -0.5 0.65 1.5
v 0.5 0.8517194 1.5
v -0.5 0.8517194 1.5
v 0.4034387 0.9 1.5
v -0.4034387 0.9 1.5
v -0.4034387 0.4 0.5
v 0.4034387 0.4 0.5
v -0.5 0.4482806 0.5
v 0.5 0.4482806 0.5
v -0.5 0.65 0.5
v 0.5 0.65 0.5
v -0.5 0.8517194 0.5
v 0.5 0.8517194 0.5
vn 0 0.5 0
vn -0.7071066 0.3535534 0
vn 0.7071066 0.3535534 0
vn -0.6799791 -0.3399896 0.2743299
vn 0.6799791 -0.3399895 0.2743299
vn 0 -0.4472136 0.4472136
vt 0.5 0.65
vt -0.5 0.65
vt 0.5 0.8517194
vt -0.5 0.8517194
vt 0.5 0.4482806
vt -0.5 0.4482806
vt -0.4034387 1.5
vt 0.4034387 1.5
vt 0.5 1.5
vt -0.5 1.5
vt 1.5 0.8517194
vt -1.5 0.8517194
vt 0.5 -1.5
vt -0.5 -1.5
vt -1.5 0.65
vt 1.5 0.65

usemtl _defaultMat (Instance)
usemap _defaultMat (Instance)
f 77/104/4 76/103/4 75/102/4
f 76/103/4 77/104/4 78/105/4
f 78/105/4 77/104/4 79/99/4
f 78/105/4 79/99/4 80/100/4
f 83/106/8 82/43/8 81/42/8
f 82/43/8 83/106/8 84/107/8
f 84/107/8 83/106/8 85/102/8
f 84/107/8 85/102/8 86/103/8
f 86/103/8 85/102/8 87/104/8
f 86/103/8 87/104/8 88/105/8
f 88/105/8 87/104/8 72/99/8
f 88/105/8 72/99/8 74/100/8
f 72/39/40 79/108/40 74/36/40
f 79/108/40 72/39/40 80/109/40
f 78/110/41 72/39/41 87/44/41
f 72/39/41 78/110/41 80/109/41
f 79/108/42 88/34/42 74/36/42
f 88/34/42 79/108/42 77/111/42
f 78/112/7 87/104/7 85/102/7
f 77/113/16 86/103/16 88/105/16

usemtl engine
usemap engine
f 76/114/43 83/2/43 81/98/43
f 82/101/44 84/1/44 75/115/44
f 77/113/16 84/107/16 86/103/16
f 84/107/16 77/113/16 75/116/16
f 76/114/45 82/101/45 75/115/45
f 82/101/45 76/114/45 81/98/45
f 83/106/7 78/112/7 85/102/7
f 78/112/7 83/106/7 76/117/7
v 0.5 0.5 -0.9090189
v 0.5 0.5 -0.5
v 0.5 0.5272897 -0.8934686
v 0.5 0.5795915 -0.8595061
v 0.5 0.6276852 -0.8237996
v 0.5 0.671369 -0.7864987
v 0.5 0.7104598 -0.7477599
v 0.5 0.7447936 -0.7077455
v 0.5 0.7742265 -0.6666234
v 0.5 0.7986352 -0.6245658
v 0.5 0.8179172 -0.5817494
v 0.5 0.8319918 -0.5383534
v 0.5 0.8397057 -0.5
v -0.5 0.6276852 -0.8237996
v -0.2004103 0.8755146 -1.109801
v -0.5 0.671369 -0.7864987
v 0.1996844 0.7537992 -1.273558
v 0.1996252 0.8196026 -1.192737
v -0.2003156 0.7537992 -1.273558
v -0.2003748 0.8196026 -1.192737
v 0.2 0.9756826 -0.5
v 0.1995778 0.9213008 -1.025099
v 0.1995897 0.8755146 -1.109801
v -0.2004222 0.9213008 -1.025099
v 0.1998721 0.9931508 -0.5876908
v -0.2 0.9756826 -0.5
v -0.2001279 0.9931508 -0.5876908
v 0.1995897 0.956769 -0.9389846
v 0.1997668 0.6783803 -1.351927
v -0.2002332 0.6783803 -1.351927
v 0.1996252 0.9817709 -0.85182
v -0.2004103 0.956769 -0.9389846
v 0.1996844 0.9962014 -0.7639704
v 0.1997668 1 -0.6758041
v -0.2003748 0.9817709 -0.85182
v -0.5 0.7742265 -0.6666234
v -0.2003156 0.9962014 -0.7639704
v -0.5 0.7986352 -0.6245658
v -0.5 0.7447936 -0.7077455
v -0.2002332 1 -0.6758041
v -0.5 0.7104598 -0.7477599
v -0.5 0.5 -0.5
v -0.5 0.8397057 -0.5
v -0.5 0.5 -0.9090189
v -0.5 0.5272897 -0.8934686
v -0.5 0.5795915 -0.8595061
v -0.5 0.8179172 -0.5817494
v -0.5 0.8319918 -0.5383534
v 0.2 0.5 -1.5
v -0.2 0.5 -1.5
v -0.2001279 0.5936622 -1.427513
v 0.1998721 0.5936622 -1.427513
vn -0.7837957 0.3869397 -0.4857388
vn -0.7805763 0.4709208 -0.4110162
vn -0.7654248 0.4868436 -0.4208421
vn 0 0.7394124 -0.6732528
vn 0 0.794091 -0.607799
vn 0 0.75774 -0.6525567
vn 0 0.812006 -0.5836491
vn 0.4821532 0.8672336 -0.1242346
vn 0.4060723 0.8959002 -0.1801894
vn 0.7245908 0.595759 -0.346467
vn 0.7547045 0.5180639 -0.4025307
vn 0.7209039 0.5838178 -0.373436
vn 0 0.8469115 -0.5317338
vn 0 0.9034134 -0.4287705
vn 0 0.8637729 -0.5038813
vn 0.7767004 0.4691285 -0.4203033
vn 0.4540002 0.8826805 0.1214864
vn 0.4434045 0.8791738 0.1744873
vn 0 0.9807308 0.1953644
vn 0 0.9877062 0.1563215
vn 0 0.9931353 0.1169705
vn 0.6850478 0.6636446 -0.3004752
vn 0 0.693642 -0.7203199
vn 0.6380218 0.7315546 -0.2403252
vn 0.6801372 0.6533758 -0.3324354
vn 0.6313492 0.7241739 -0.2774354
vn 0 0.9503491 -0.3111856
vn 0 0.9381333 -0.3462744
vn 0.5832924 0.7952929 -0.1651642
vn 0.5740523 0.7922096 -0.2070455
vn 0.4848123 0.8467185 -0.2191456
vn 0.5462524 0.8245398 -0.1474528
vn 0.4426325 0.8964561 0.02104927
vn 0.4959762 0.8681967 0.01555507
vn 0 0.979741 -0.2002686
vn 0 0.971216 -0.2382008
vn 0.8237861 0.3822725 -0.4186219
vn 0.8323081 0.3480797 -0.4313975
vn 0.8185916 0.3530599 -0.4530525
vn -0.6483155 0.6912104 -0.3192416
vn -0.627919 0.7329 -0.2618689
vn -0.5960905 0.7147576 -0.3657836
vn -0.6423174 0.7481213 -0.166562
vn -0.6100078 0.7699847 -0.1871202
vn -0.6949538 0.6195239 -0.3650061
vn -0.6775423 0.6626481 -0.3191144
vn -0.6531546 0.6366368 -0.409979
vn 0.7972888 0.4033938 -0.4490035
vn 0.7829678 0.3875899 -0.4865548
vn -0.5900928 0.8032328 -0.08128753
vn -0.5516244 0.8275934 -0.1039211
vn -0.5696214 0.7997758 -0.1894472
vn 0 0.9965612 -0.08285891
vn 0 0.9924556 -0.1226045
vn -0.7409189 0.5712586 -0.3531329
vn -0.7335621 0.5507854 -0.3981483
vn -0.7045784 0.637693 -0.311315
vn 0.8063007 0.4310964 -0.4050125
vn 0 0.9993012 0.03737713
vn 0 0.9999959 -0.002868598
vn -0.8418648 0.3295915 -0.4273562
vn -0.8370943 0.3492825 -0.4210402
vn -0.8329107 0.34661 -0.4314177
vn -0.8243984 0.3811299 -0.4184583
vn -0.819214 0.352269 -0.4525428
vn -0.798047 0.4025835 -0.4483833
vn -0.4738244 0.8721413 0.1219022
vn -0.4434369 0.8789104 0.1757281
vn -0.8281569 0.3884429 -0.4040647
vn -0.6611165 0.705138 -0.2563311
vn -0.5926807 0.7626568 -0.259006
vn -0.5279362 0.792759 -0.3046581
vn 0 0.6302834 -0.7763652
vn 0 0.6481952 -0.7614741
vn -0.5329053 0.8460182 0.01628472
vn -0.4876633 0.8729885 -0.008700943
vn -0.5034019 0.8579935 -0.1021448
vn -0.8070284 0.4300307 -0.4046959
vn 0.5217813 0.849709 -0.0757563
vn 0.7813705 0.4226243 -0.4591827
vn 0.8364448 0.351208 -0.4207292
vn 0.8412254 0.3316382 -0.4270316
vn 0 0.6120396 -0.7908272
vn 0.82749 0.39013 -0.4038054
vn -0.4490786 0.8646687 -0.2251145
vn -0.4060723 0.8959002 -0.1801894
vn -0.5279288 0.8292583 -0.1833628
vt 0.9090189 0.5
vt 0.8934686 0.5272897
vt 0.8595061 0.5795915
vt 0.8237996 0.6276852
vt 0.7864987 0.671369
vt 0.7477599 0.7104598
vt 0.7077455 0.7447936
vt 0.6666234 0.7742265
vt 0.6245658 0.7986352
vt 0.5817494 0.8179172
vt 0.5383534 0.8319918
vt 0.5 0.8397057
vt -0.8237996 0.6276852
vt -1.109801 0.8755146
vt -0.7864987 0.671369
vt -0.1996844 -1.273558
vt -0.1996252 -1.192737
vt 0.2003156 -1.273558
vt 0.2003748 -1.192737
vt -0.5 -0.5383534
vt -0.2 -0.5
vt 1.025099 0.9213008
vt -0.1995897 -1.109801
vt -0.1995778 -1.025099
vt 0.2004103 -1.109801
vt 0.2004222 -1.025099
vt 1.109801 0.8755146
vt -0.1998721 -0.5876908
vt 0.2 -0.5
vt 0.2001279 -0.5876908
vt 0.9389846 0.956769
vt -0.1997668 -1.351927
vt 0.2002332 -1.351927
vt 0.85182 0.9817709
vt -0.1995897 -0.9389846
vt 0.2004103 -0.9389846
vt -0.5 -0.6245658
vt -0.1996844 -0.7639704
vt -0.1996252 -0.85182
vt -0.5 -0.5817494
vt -0.1997668 -0.6758041
vt -0.5 -0.6666234
vt 0.2003748 -0.85182
vt 1.273558 0.7537992
vt 0.5 -0.6666234
vt 0.2003156 -0.7639704
vt 0.5 -0.6245658
vt -0.7077455 0.7447936
vt -0.85182 0.9817709
vt -0.6666234 0.7742265
vt 0.2002332 -0.6758041
vt -1.025099 0.9213008
vt -0.7477599 0.7104598
vt -0.9389846 0.956769
vt -0.5 0.8397057
vt -0.2 0.9756826
vt 0.2 0.9756826
vt 1.192737 0.8196026
vt -0.9090189 0.5
vt -0.8934686 0.5272897
vt -0.8595061 0.5795915
vt -0.6245658 0.7986352
vt -0.5817494 0.8179172
vt -0.5383534 0.8319918
vt -0.5 0.9090189
vt -0.2 1.5
vt 0.2 1.5
vt 0.5 0.9090189
vt -1.427513 0.5936622
vt -1.273558 0.7537992
vt 0.5 -0.5383534
vt -1.351927 0.6783803
vt 0.5 -0.7077455
vt 0.5 -0.5817494
vt 0.2001279 0.5936622
vt -0.1998721 0.5936622
vt 0.2002332 0.6783803
vt -0.1997668 0.6783803
vt -1.192737 0.8196026
vt 1.427513 0.5936622
vt 0.2 0.5
vt -0.2 0.5
vt 1.351927 0.6783803

usemtl black.001
usemap black.001
f 91/119/16 90/44/16 89/118/16
f 90/44/16 91/119/16 92/120/16
f 90/44/16 92/120/16 93/121/16
f 90/44/16 93/121/16 94/122/16
f 90/44/16 94/122/16 95/123/16
f 90/44/16 95/123/16 96/124/16
f 90/44/16 96/124/16 97/125/16
f 90/44/16 97/125/16 98/126/16
f 90/44/16 98/126/16 99/127/16
f 90/44/16 99/127/16 100/128/16
f 90/44/16 100/128/16 101/129/16
f 104/132/48 103/131/47 102/130/46
f 107/135/51 106/134/50 105/133/49
f 106/134/50 107/135/51 108/136/52
f 109/138/54 101/1/54 100/137/53
f 96/124/57 95/123/56 110/139/55
f 103/142/60 110/141/59 111/140/58
f 110/141/59 103/142/60 112/143/59
f 95/123/56 111/144/61 110/139/55
f 113/145/62 109/138/63 100/137/62
f 113/145/65 114/146/64 109/138/64
f 114/146/64 113/145/65 115/147/66
f 96/124/57 110/139/55 116/148/67
f 118/150/68 105/133/49 117/149/68
f 105/133/49 118/150/68 107/135/51
f 98/126/71 97/125/70 119/151/69
f 110/141/59 120/153/73 116/152/72
f 120/153/73 110/141/59 112/143/59
f 119/156/69 121/155/74 98/154/71
f 97/125/70 96/124/57 116/148/67
f 122/158/77 100/137/76 99/157/75
f 122/158/79 113/145/62 100/137/78
f 116/152/67 119/156/69 97/159/70
f 116/152/72 123/160/81 119/156/80
f 123/160/81 116/152/72 120/153/73
f 91/119/84 89/118/83 105/161/82
f 126/164/87 125/163/86 124/162/85
f 124/162/86 125/163/89 123/160/88
f 121/155/74 99/157/75 98/154/71
f 124/167/92 123/166/91 127/165/90
f 93/121/94 92/120/93 111/144/61
f 126/164/97 128/168/96 125/163/95
f 119/156/80 125/163/99 121/155/98
f 125/163/99 119/156/80 123/160/81
f 129/170/101 112/169/100 104/132/48
f 127/165/90 120/171/102 129/170/101
f 101/129/4 130/34/4 90/44/4
f 130/34/4 101/129/4 131/172/4
f 131/172/4 101/129/4 114/173/4
f 114/173/4 101/129/4 109/174/4
f 92/120/93 106/175/103 111/144/61
f 130/34/7 133/177/7 132/176/7
f 133/177/7 130/34/7 134/178/7
f 134/178/7 130/34/7 102/130/7
f 102/130/7 130/34/7 104/132/7
f 104/132/7 130/34/7 129/170/7
f 129/170/7 130/34/7 127/165/7
f 127/165/7 130/34/7 124/167/7
f 124/167/7 130/34/7 126/179/7
f 126/179/7 130/34/7 135/180/7
f 135/180/7 130/34/7 136/181/7
f 136/181/7 130/34/7 131/172/7
f 122/158/104 115/147/66 113/145/65
f 115/147/66 122/158/104 128/168/105
f 129/170/101 120/171/102 112/169/100
f 130/44/24 89/182/24 90/34/24
f 89/182/24 130/44/24 137/183/24
f 137/183/24 130/44/24 138/184/24
f 138/184/24 130/44/24 132/185/24
f 132/176/108 139/186/107 138/92/106
f 133/177/110 107/187/109 132/176/108
f 102/130/46 103/131/47 134/178/111
f 136/188/113 114/146/113 115/147/112
f 132/176/108 107/187/109 118/189/114
f 127/190/90 123/160/115 120/153/102
f 135/191/117 128/168/97 126/164/116
f 118/194/68 140/193/119 139/192/118
f 140/193/119 118/194/68 117/195/68
f 132/176/108 118/189/114 139/186/107
f 135/191/122 115/147/121 128/168/120
f 134/178/111 103/131/47 108/196/123
f 134/178/111 108/196/123 133/177/110
f 92/120/93 91/119/84 106/175/103
f 133/177/110 108/196/123 107/187/109
f 121/155/74 122/158/124 99/157/75
f 95/123/56 94/122/125 111/144/61
f 121/155/98 128/168/105 122/158/104
f 128/168/105 121/155/98 125/163/99
f 89/118/83 137/62/127 140/197/126
f 139/192/118 137/199/128 138/198/128
f 137/199/128 139/192/118 140/193/119
f 94/122/125 93/121/94 111/144/61
f 89/118/83 117/200/129 105/161/82
f 131/2/131 114/146/131 136/188/130
f 108/136/52 111/140/58 106/134/50
f 111/140/58 108/136/52 103/142/60
f 91/119/84 105/161/82 106/175/103
f 104/132/48 112/169/100 103/131/47
f 136/188/130 115/147/122 135/191/132
f 89/118/83 140/197/126 117/200/129
v 0.2941552 1.134648 0.07907676
v -0.2941552 1.134648 0.07907676
v 0.08061644 1.050344 -0.4150146
v -0.08061644 1.050344 -0.4150146
v 0.2941552 0.9751719 -0.5075073
v 0.2941552 0.9 -0.6
v -0.2941552 0.9 -0.6
v -0.2941552 0.9751719 -0.5075073
v 0.2941552 0.9 0.4
v 0.2941552 0.9658142 0.4
v -0.2941552 0.9 0.4
v -0.2941552 0.9658142 0.4
vn 0.1967631 1.067973 -0.1939836
vn -0.1310149 1.076973 -0.180755
vn 0.1310149 1.076973 -0.180755
vn -0.1967631 1.067973 -0.1939836
vn 0.3892548 1.025761 -0.2304761
vn 0 0.8847127 -0.5942447
vn 0 0.8847126 -0.5942448
vn 0 0.8847127 -0.5942448
vn 0 0.8847126 -0.5942448
vn 1.4 0 0
vn -0.3892548 1.025761 -0.2304761
vn -1.4 0 0
vn 0 -1.1 0
vn 0 0.9923475 0.4314558
vt -0.2941552 0.07907676
vt 0.2941552 0.07907676
vt -0.08061644 -0.4150146
vt 0.08061644 -0.4150146
vt -0.2941552 -0.5075073
vt -0.2941552 -0.6
vt 0.2941552 -0.6
vt 0.2941552 -0.5075073
vt 0.6 0.9
vt -0.4 0.9
vt 0.5075073 0.9751719
vt -0.07907676 1.134648
vt -0.4 0.9658142
vt 0.2941552 0.9
vt -0.2941552 0.9
vt 0.2941552 0.9658142
vt -0.2941552 0.9658142
vt -0.6 0.9
vt -0.5075073 0.9751719
vt 0.4 0.9
vt 0.07907676 1.134648
vt 0.4 0.9658142
vt -0.2941552 -0.4
vt -0.2941552 0.6
vt 0.2941552 -0.4
vt 0.2941552 0.6
vt -0.2941552 0.4
vt 0.2941552 0.4

usemtl glass (Instance)
usemap glass (Instance)
f 143/203/135 142/202/134 141/201/133
f 142/202/134 143/203/135 144/204/136
f 143/203/135 141/201/133 145/205/137
f 147/207/140 145/205/139 146/206/138
f 145/205/139 147/207/140 143/203/141
f 143/203/141 147/207/140 144/204/139
f 144/204/139 147/207/140 148/208/138
f 145/211/142 149/210/142 146/209/142
f 149/210/142 145/211/142 141/212/142
f 149/210/142 141/212/142 150/213/142
f 142/202/134 144/204/136 148/208/143
f 150/216/4 151/215/4 149/214/4
f 151/215/4 150/216/4 152/217/4
f 151/220/144 148/219/144 147/218/144
f 148/219/144 151/220/144 142/221/144
f 142/221/144 151/220/144 152/222/144
f 151/225/145 146/224/145 149/223/145
f 146/224/145 151/225/145 147/226/145
f 142/202/146 150/227/146 141/201/146
f 150/227/146 142/202/146 152/228/146
